<svg xmlns="http://www.w3.org/2000/svg" viewBox="0 0 512 512" role="img" aria-label="NeonBlock City icon">
  <defs>
    <linearGradient id="g" x1="0" y1="0" x2="1" y2="1">
      <stop offset="0" stop-color="#17f3ff"/>
      <stop offset="0.5" stop-color="#7c3aed"/>
      <stop offset="1" stop-color="#ff3366"/>
    </linearGradient>
    <filter id="glow"><feGaussianBlur stdDeviation="10" result="b"/><feMerge><feMergeNode in="b"/><feMergeNode in="SourceGraphic"/></feMerge></filter>
  </defs>
  <rect width="512" height="512" rx="96" fill="#050814"/>
  <path d="M80 396h352" stroke="#17f3ff" stroke-width="18" stroke-linecap="round" opacity=".55"/>
  <g filter="url(#glow)">
    <rect x="112" y="188" width="72" height="176" rx="12" fill="url(#g)" opacity=".92"/>
    <rect x="214" y="116" width="84" height="248" rx="12" fill="url(#g)" opacity=".98"/>
    <rect x="328" y="164" width="72" height="200" rx="12" fill="url(#g)" opacity=".9"/>
  </g>
  <g fill="#050814" opacity=".85">
    <rect x="132" y="218" width="18" height="18"/><rect x="132" y="260" width="18" height="18"/><rect x="132" y="302" width="18" height="18"/>
    <rect x="246" y="152" width="20" height="20"/><rect x="246" y="200" width="20" height="20"/><rect x="246" y="248" width="20" height="20"/><rect x="246" y="296" width="20" height="20"/>
    <rect x="352" y="198" width="18" height="18"/><rect x="352" y="240" width="18" height="18"/><rect x="352" y="282" width="18" height="18"/>
  </g>
</svg>
