<svg xmlns="http://www.w3.org/2000/svg" viewBox="0 0 512 512" role="img" aria-label="NeonBlock City icon">
  <defs>
    <linearGradient id="bg" x1="0" y1="0" x2="1" y2="1"><stop stop-color="#050814"/><stop offset="1" stop-color="#17204a"/></linearGradient>
    <filter id="glow"><feGaussianBlur stdDeviation="8" result="b"/><feMerge><feMergeNode in="b"/><feMergeNode in="SourceGraphic"/></feMerge></filter>
  </defs>
  <rect width="512" height="512" rx="96" fill="url(#bg)"/>
  <path d="M72 400h368" stroke="#17f3ff" stroke-width="18" stroke-linecap="round" filter="url(#glow)"/>
  <rect x="112" y="178" width="74" height="222" rx="10" fill="#26315f" stroke="#17f3ff" stroke-width="8"/>
  <rect x="218" y="104" width="82" height="296" rx="10" fill="#303b74" stroke="#ff3366" stroke-width="8"/>
  <rect x="332" y="218" width="68" height="182" rx="10" fill="#26315f" stroke="#5ef38c" stroke-width="8"/>
  <g fill="#ffd166">
    <rect x="132" y="212" width="16" height="22"/><rect x="160" y="212" width="16" height="22"/><rect x="132" y="258" width="16" height="22"/><rect x="160" y="258" width="16" height="22"/>
    <rect x="242" y="146" width="18" height="24"/><rect x="274" y="146" width="18" height="24"/><rect x="242" y="204" width="18" height="24"/><rect x="274" y="204" width="18" height="24"/>
    <rect x="352" y="250" width="16" height="22"/><rect x="376" y="250" width="16" height="22"/><rect x="352" y="298" width="16" height="22"/><rect x="376" y="298" width="16" height="22"/>
  </g>
  <rect x="206" y="352" width="104" height="48" rx="16" fill="#ff3366" filter="url(#glow)"/>
</svg>
