<svg xmlns="http://www.w3.org/2000/svg" viewBox="0 0 512 512" role="img" aria-label="NeonBlock City icon">
  <defs>
    <linearGradient id="g" x1="0" y1="0" x2="1" y2="1">
      <stop stop-color="#17f3ff"/>
      <stop offset="1" stop-color="#ff2fb2"/>
    </linearGradient>
    <filter id="glow"><feGaussianBlur stdDeviation="8" result="b"/><feMerge><feMergeNode in="b"/><feMergeNode in="SourceGraphic"/></feMerge></filter>
  </defs>
  <rect width="512" height="512" rx="108" fill="#050814"/>
  <path d="M96 388h320v44H96z" fill="#11172d"/>
  <g filter="url(#glow)">
    <rect x="112" y="178" width="82" height="210" rx="10" fill="url(#g)" opacity=".88"/>
    <rect x="218" y="108" width="92" height="280" rx="12" fill="#17f3ff" opacity=".82"/>
    <rect x="334" y="214" width="66" height="174" rx="10" fill="#ff2fb2" opacity=".84"/>
  </g>
  <g fill="#050814" opacity=".9">
    <rect x="130" y="204" width="18" height="18"/><rect x="158" y="204" width="18" height="18"/>
    <rect x="130" y="240" width="18" height="18"/><rect x="158" y="240" width="18" height="18"/>
    <rect x="242" y="144" width="20" height="20"/><rect x="278" y="144" width="20" height="20"/>
    <rect x="242" y="188" width="20" height="20"/><rect x="278" y="188" width="20" height="20"/>
    <rect x="350" y="244" width="16" height="16"/><rect x="374" y="244" width="16" height="16"/>
  </g>
</svg>
