<svg xmlns="http://www.w3.org/2000/svg" viewBox="0 0 512 512" role="img" aria-label="NeonBlock City icon">
  <rect width="512" height="512" rx="96" fill="#050814"/>
  <path d="M72 384h368" stroke="#17f3ff" stroke-width="18" stroke-linecap="round" opacity=".75"/>
  <rect x="112" y="168" width="84" height="216" rx="10" fill="#141a3b" stroke="#17f3ff" stroke-width="10"/>
  <rect x="224" y="104" width="92" height="280" rx="10" fill="#141a3b" stroke="#7d5cff" stroke-width="10"/>
  <rect x="344" y="216" width="64" height="168" rx="10" fill="#141a3b" stroke="#5ef38c" stroke-width="10"/>
  <g fill="#17f3ff">
    <rect x="132" y="196" width="18" height="18" rx="3"/><rect x="162" y="196" width="18" height="18" rx="3"/>
    <rect x="132" y="234" width="18" height="18" rx="3"/><rect x="162" y="234" width="18" height="18" rx="3"/>
  </g>
  <g fill="#7d5cff">
    <rect x="248" y="140" width="18" height="18" rx="3"/><rect x="280" y="140" width="18" height="18" rx="3"/>
    <rect x="248" y="182" width="18" height="18" rx="3"/><rect x="280" y="182" width="18" height="18" rx="3"/>
    <rect x="248" y="224" width="18" height="18" rx="3"/><rect x="280" y="224" width="18" height="18" rx="3"/>
  </g>
</svg>
