<svg xmlns="http://www.w3.org/2000/svg" viewBox="0 0 512 512" role="img" aria-label="NeonBlock City icon">
  <rect width="512" height="512" rx="96" fill="#050814"/>
  <path d="M92 392h328v44H92z" fill="#17f3ff" opacity=".9"/>
  <rect x="112" y="168" width="88" height="224" rx="10" fill="#141a3b" stroke="#17f3ff" stroke-width="10"/>
  <rect x="216" y="104" width="92" height="288" rx="10" fill="#101a3f" stroke="#ff3cff" stroke-width="10"/>
  <rect x="324" y="204" width="76" height="188" rx="10" fill="#13243b" stroke="#5ef38c" stroke-width="10"/>
  <g fill="#f7f9ff">
    <rect x="136" y="204" width="20" height="24"/><rect x="168" y="204" width="20" height="24"/><rect x="136" y="252" width="20" height="24"/><rect x="168" y="252" width="20" height="24"/>
    <rect x="240" y="144" width="20" height="24"/><rect x="272" y="144" width="20" height="24"/><rect x="240" y="196" width="20" height="24"/><rect x="272" y="196" width="20" height="24"/><rect x="240" y="248" width="20" height="24"/><rect x="272" y="248" width="20" height="24"/>
    <rect x="346" y="236" width="18" height="22"/><rect x="374" y="236" width="18" height="22"/><rect x="346" y="286" width="18" height="22"/><rect x="374" y="286" width="18" height="22"/>
  </g>
</svg>
