<svg xmlns="http://www.w3.org/2000/svg" viewBox="0 0 512 512">
  <rect width="512" height="512" rx="108" fill="#050814"/>
  <rect x="86" y="364" width="340" height="58" fill="#12304a"/>
  <rect x="118" y="178" width="76" height="186" rx="10" fill="#17214a" stroke="#17f3ff" stroke-width="10"/>
  <rect x="218" y="104" width="88" height="260" rx="10" fill="#101936" stroke="#5ef38c" stroke-width="10"/>
  <rect x="330" y="224" width="64" height="140" rx="10" fill="#24163f" stroke="#ff66c4" stroke-width="10"/>
  <rect x="138" y="208" width="18" height="18" rx="4" fill="#17f3ff"/>
  <rect x="166" y="208" width="18" height="18" rx="4" fill="#17f3ff"/>
  <rect x="138" y="250" width="18" height="18" rx="4" fill="#17f3ff"/>
  <rect x="166" y="250" width="18" height="18" rx="4" fill="#17f3ff"/>
  <rect x="242" y="138" width="18" height="18" rx="4" fill="#5ef38c"/>
  <rect x="270" y="138" width="18" height="18" rx="4" fill="#5ef38c"/>
  <rect x="242" y="186" width="18" height="18" rx="4" fill="#5ef38c"/>
  <rect x="270" y="186" width="18" height="18" rx="4" fill="#5ef38c"/>
  <circle cx="366" cy="256" r="10" fill="#ff66c4"/>
  <circle cx="366" cy="302" r="10" fill="#ff66c4"/>
  <path d="M160 408c62-52 131-52 194 0" fill="none" stroke="#ffd166" stroke-width="20" stroke-linecap="round"/>
</svg>
